#!OML:ASF H:\Terrain\Patient Classification 1\Animal1\Tuesday\Animal1.ASF
:FULLY-SPECIFIED
:DEGREES
1471
root 10.4559 13.876 -3.44083 10.3077 -19.337 3.76558
lowerback 9.30526 1.24393 -5.76581
upperback -3.33625 0.804123 -1.3831
thorax -8.86786 0.66597 1.63398
lowerneck -12.9302 0.561153 -2.40077
upperneck -1.78359 0.850011 8.53594
head 1.65542 0.657043 3.28156
rclavicle 1.5207e-014 -1.39149e-014
rhumerus 20.248 45.923 -18.9933
rradius 132.608
rwrist -41.7401
rhand -28.8658 45.2788
rfingers 7.12502
rthumb -2.2221 15.3106
lclavicle 1.5207e-014 -1.39149e-014
lhumerus -1.3934 -34.0553 46.2814
lradius 128.554
lwrist 1.72883
lhand 3.20141 30.2183
lfingers 7.12502
lthumb 28.653 58.0412
rfemur -26.8998 1.86858 15.8745
rtibia 87.6403
rfoot -9.69956 -0.604747
rtoes -13.863
lfemur -63.4522 -16.9544 -21.0072
ltibia 73.2967
lfoot -18.855 -0.101855
ltoes -23.2249
1472
root 10.4616 13.8825 -3.48706 10.0535 -19.5533 3.64213
lowerback 9.49427 1.20684 -5.5413
upperback -3.45847 0.754719 -1.49029
thorax -9.10193 0.632512 1.39712
lowerneck -12.9103 0.661528 -2.06494
upperneck -1.04417 0.881997 8.67214
head 1.89704 0.691665 3.27992
rclavicle -5.36967e-014 4.77083e-015
rhumerus 24.8116 48.7475 -10.7509
rradius 132.451
rwrist -40.5683
rhand -28.8263 45.9835
rfingers 7.12502
rthumb -2.18397 16.0149
lclavicle -5.36967e-014 4.77083e-015
lhumerus 0.32339 -40.2202 40.1586
lradius 128.814
lwrist 3.61356
lhand 1.2343 32.7929
lfingers 7.12502
lthumb 26.7721 60.9184
rfemur -26.5826 2.18741 16.008
rtibia 87.3258
rfoot -10.1158 -1.14997
rtoes -16.4138
lfemur -63.1879 -16.8327 -20.8151
ltibia 73.0085
lfoot -18.6681 -0.668474
ltoes -19.4741
1473
root 10.4679 13.8953 -3.5411 9.77844 -19.7447 3.33912
lowerback 9.32266 1.19125 -5.06752
upperback -3.24968 0.808691 -1.58787
thorax -8.76376 0.619238 1.0256
lowerneck -12.6945 0.70368 -1.86747
upperneck -0.924383 0.894997 8.88989
head 1.89809 0.702303 3.31712
rclavicle -2.48481e-014 -1.61016e-014
rhumerus 29.5881 50.8591 -2.4027
rradius 132.233
rwrist -39.6087
rhand -29.0551 46.2664
rfingers 7.12502
rthumb -2.40495 16.3002
lclavicle -2.48481e-014 -1.61016e-014
lhumerus 3.15817 -45.476 33.2474
lradius 129.045
lwrist 4.72627
lhand -0.0577793 32.3572
lfingers 7.12502
lthumb 25.535 60.6659
rfemur -26.261 2.55094 16.3901
rtibia 86.9932
rfoot -10.4347 -1.45023
rtoes -17.4571
lfemur -62.8562 -16.6732 -20.4357
ltibia 72.646
lfoot -18.3094 -0.797183
ltoes -19.1924
1474
root 10.4745 13.9338 -3.58995 9.41118 -19.915 3.20372
lowerback 8.77435 1.21921 -4.98339
upperback -2.78852 0.919743 -1.50722
thorax -7.94957 0.650656 1.06482
lowerneck -12.6635 0.672387 -2.02321
upperneck -0.956075 0.874097 9.0156
head 1.88457 0.693992 3.38864
rclavicle 3.61291e-014 4.17448e-015
rhumerus 34.1524 52.2649 6.10969
rradius 132.013
rwrist -38.2992
rhand -29.3422 46.6317
rfingers 7.12502
rthumb -2.68221 16.6688
lclavicle 3.61291e-014 4.17448e-015
lhumerus 6.81297 -49.5416 26.2054
lradius 129.054
lwrist 3.9095
lhand 0.581602 31.9747
lfingers 7.12502
lthumb 26.1473 60.1942
rfemur -25.7696 2.75367 16.54
rtibia 86.5176
rfoot -10.9712 -1.5363
rtoes -17.6682
lfemur -62.2401 -16.6197 -20.2649
ltibia 72.0878
lfoot -18.1708 -0.780847
ltoes -19.8465
1475
root 10.4831 13.9811 -3.63303 9.00571 -20.0712 3.36544
lowerback 8.19452 1.20838 -5.23025
upperback -2.42458 0.935879 -1.44736
thorax -7.23059 0.653138 1.28097
lowerneck -12.5671 0.664364 -2.28581
upperneck -0.813974 0.884541 9.2415
head 1.91659 0.706745 3.52008
rclavicle -1.35422e-014 2.42517e-014
rhumerus 38.2985 53.4228 14.1137
rradius 131.725
rwrist -36.5333
rhand -29.6244 47.3094
rfingers 7.12502
rthumb -2.95475 17.3501
lclavicle -1.35422e-014 2.42517e-014
lhumerus 10.3763 -52.9762 19.3173
lradius 128.967
lwrist 1.68555
lhand 2.14162 31.1514
lfingers 7.12502
lthumb 27.64 59.141
rfemur -25.2288 2.80646 16.3221
rtibia 85.9469
rfoot -11.4989 -1.95992
rtoes -21.2274
lfemur -61.5293 -16.6932 -20.4034
ltibia 71.3791
lfoot -18.118 -0.624264
ltoes -20.6479
1476
root 10.4933 14.0172 -3.6854 8.66812 -20.1985 3.62311
lowerback 7.78254 1.14504 -5.37816
upperback -2.22305 0.865882 -1.54839
thorax -6.77524 0.610518 1.27812
lowerneck -12.1627 0.666605 -2.34104
upperneck -0.845026 0.893087 9.42855
head 1.8335 0.706097 3.58837
rclavicle -3.94588e-014 1.59028e-015
rhumerus 41.9423 54.4577 21.2212
rradius 131.611
rwrist -35.4749
rhand -29.2761 47.3761
rfingers 7.12502
rthumb -2.61838 17.4124
lclavicle -3.94588e-014 1.59028e-015
lhumerus 13.6058 -56.3755 12.4829
lradius 129.009
lwrist -1.19957
lhand 2.97196 30.4743
lfingers 7.12502
lthumb 28.4338 58.3341
rfemur -24.8816 2.73402 16.0186
rtibia 85.4288
rfoot -11.7602 -2.4577
rtoes -24.3722
lfemur -61.0255 -16.764 -20.5705
ltibia 70.6383
lfoot -17.8205 -0.627687
ltoes -21.0193
1477
root 10.4983 14.0481 -3.74643 8.42098 -20.2679 3.63126
lowerback 9.26885 1.18137 -5.57442
upperback -3.20649 0.75008 -1.41802
thorax -8.69569 0.621995 1.50186
lowerneck -11.5111 0.627535 -2.41894
upperneck 0.222962 0.778557 9.42443
head 2.08025 0.659498 3.60416
rclavicle 6.78353e-015 -7.7526e-015
rhumerus 46.133 56.922 28.919
rradius 131.935
rwrist -35.2644
rhand -28.5123 46.644
rfingers 7.12502
rthumb -1.88073 16.6726
lclavicle 6.78353e-015 -7.7526e-015
lhumerus 15.5799 -61.1253 6.99744
lradius 129.17
lwrist -4.62299
lhand 3.50279 30.0502
lfingers 7.12502
lthumb 28.9409 57.8242
rfemur -24.6029 2.60555 16.0797
rtibia 84.9116
rfoot -12.0911 -2.52124
rtoes -22.8679
lfemur -60.6514 -16.7162 -20.4406
ltibia 69.9552
lfoot -17.3343 -0.867714
ltoes -20.8237
1478
root 10.5015 14.086 -3.81098 8.13766 -20.3071 3.41404
lowerback 8.15433 1.09895 -5.31326
upperback -2.40717 0.78537 -1.42651
thorax -7.18121 0.58239 1.37233
lowerneck -11.7422 0.651798 -2.38768
upperneck 0.253136 0.797331 9.5652
head 2.13273 0.678894 3.65454
rclavicle 2.80783e-014 -2.98177e-015
rhumerus 47.7196 56.8777 33.4284
rradius 131.756
rwrist -35.3522
rhand -27.7809 46.2149
rfingers 7.12502
rthumb -1.1743 16.2384
lclavicle 2.80783e-014 -2.98177e-015
lhumerus 18.7652 -62.4328 0.737583
lradius 128.914
lwrist -7.15363
lhand 4.30301 29.0972
lfingers 7.12502
lthumb 29.7049 56.7375
rfemur -24.1633 2.52464 16.427
rtibia 84.2836
rfoot -12.6995 -2.3923
rtoes -20.1158
lfemur -60.1408 -16.6518 -20.0847
ltibia 69.2872
lfoot -16.8276 -1.20325
ltoes -21.0885
1479
root 10.5103 14.1302 -3.87463 7.92558 -20.3666 2.99599
lowerback 7.26971 1.05215 -4.9465
upperback -1.76794 0.855766 -1.28938
thorax -5.99198 0.57262 1.32503
lowerneck -11.9786 0.594703 -2.54724
upperneck 0.603687 0.711829 9.67758
head 2.30255 0.65277 3.73379
rclavicle -2.6339e-014 -8.54774e-015
rhumerus 48.6515 57.0957 36.9925
rradius 131.441
rwrist -34.9684
rhand -27.2302 46.7253
rfingers 7.12502
rthumb -0.642466 16.7465
lclavicle -2.6339e-014 -8.54774e-015
lhumerus 20.8205 -63.9026 -4.09865
lradius 128.874
lwrist -8.61589
lhand 5.32238 27.6832
lfingers 7.12502
lthumb 30.6774 55.1456
rfemur -23.6132 2.61214 16.9256
rtibia 83.5365
rfoot -13.333 -2.33654
rtoes -19.0008
lfemur -59.5986 -16.559 -19.5715
ltibia 68.6237
lfoot -16.3717 -1.58974
ltoes -21.8108
1480
root 10.5201 14.178 -3.93435 7.7636 -20.4071 2.60656
lowerback 6.67564 0.994607 -4.52582
upperback -1.36596 0.876683 -1.16019
thorax -5.2247 0.551786 1.23655
lowerneck -12.0859 0.497113 -2.68171
upperneck 0.901143 0.580983 9.62533
head 2.43297 0.594578 3.74311
rclavicle 5.00937e-014 0
rhumerus 49.0534 57.6781 39.7509
rradius 131.117
rwrist -33.7821
rhand -27.8695 47.7365
rfingers 7.12502
rthumb -1.25985 17.7605
lclavicle 5.00937e-014 0
lhumerus 20.9112 -64.8232 -6.75305
lradius 128.793
lwrist -8.89552
lhand 3.41378 28.0885
lfingers 7.12502
lthumb 28.8559 55.8769
rfemur -23.0131 2.65905 17.3902
rtibia 82.6692
rfoot -13.8159 -2.81174
rtoes -20.559
lfemur -59.0704 -16.4639 -19.1269
ltibia 67.9046
lfoot -16.125 -1.71011
ltoes -21.6045
1481
root 10.528 14.2289 -4.00022 7.50593 -20.4738 2.50315
lowerback 6.67924 0.940582 -4.26618
upperback -1.3354 0.824935 -1.21641
thorax -5.18613 0.516348 1.03897
lowerneck -12.0522 0.467369 -2.54681
upperneck 1.3914 0.491727 9.50698
head 2.59789 0.557615 3.68005
rclavicle 2.17172e-014 -2.8625e-014
rhumerus 48.3227 58.2986 40.8246
rradius 131.39
rwrist -34.301
rhand -27.047 46.8896
rfingers 7.12502
rthumb -0.465441 16.9103
lclavicle 2.17172e-014 -2.8625e-014
lhumerus 19.5289 -65.6199 -8.01967
lradius 129.164
lwrist -7.81375
lhand 4.76822 26.3427
lfingers 7.12502
lthumb 30.1489 53.9029
rfemur -22.5796 2.45642 17.6164
rtibia 81.7881
rfoot -14.0621 -3.51057
rtoes -22.9598
lfemur -58.5049 -16.4757 -18.8956
ltibia 67.0578
lfoot -16.2225 -1.3594
ltoes -20.952
1482
root 10.5367 14.289 -4.07557 7.21627 -20.6138 2.3596
lowerback 6.47222 0.889446 -4.24891
upperback -1.07248 0.785189 -1.08734
thorax -4.79273 0.488389 1.17391
lowerneck -12.3311 0.536467 -2.38744
upperneck 2.23843 0.513025 9.48227
head 2.64182 0.609494 3.30323
rclavicle 1.06598e-014 -1.98785e-016
rhumerus 46.9274 58.5861 41.1358
rradius 131.703
rwrist -34.9971
rhand -28.0261 46.2293
rfingers 7.12502
rthumb -1.41109 16.2542
lclavicle 1.06598e-014 -1.98785e-016
lhumerus 16.3805 -66.1008 -7.14995
lradius 129.746
lwrist -5.67763
lhand 3.9033 28.935
lfingers 7.12502
lthumb 29.3234 56.6427
rfemur -22.156 2.3617 17.8942
rtibia 80.8671
rfoot -14.2299 -3.77794
rtoes -23.0938
lfemur -57.8706 -16.4386 -18.5893
ltibia 66.0927
lfoot -16.0753 -2.49457
ltoes -13.0914
1483
root 10.5445 14.3582 -4.15749 7.01357 -20.7631 1.88011
lowerback 6.41445 0.862926 -3.90523
upperback -0.815229 0.7982 -0.888672
thorax -4.48903 0.480572 1.18981
lowerneck -12.6095 0.544653 -2.44758
upperneck 2.81716 0.499815 9.34335
head 2.86028 0.617743 3.27739
rclavicle 1.64991e-014 6.36111e-015
rhumerus 44.9838 59.0207 40.454
rradius 131.983
rwrist -36.2915
rhand -29.0919 45.8628
rfingers 7.12502
rthumb -2.44042 15.897
lclavicle 1.64991e-014 6.36111e-015
lhumerus 11.8156 -66.5007 -4.74924
lradius 130.211
lwrist -3.00194
lhand 5.52941 28.0579
lfingers 7.12502
lthumb 30.8748 55.4831
rfemur -21.5202 2.5765 18.5418
rtibia 79.8113
rfoot -14.3989 -4.11445
rtoes -22.5256
lfemur -57.1786 -16.1861 -18.0099
ltibia 65.0494
lfoot -15.6054 -2.76851
ltoes -12.6129
1484
root 10.5535 14.427 -4.24091 6.93763 -20.8919 1.43066
lowerback 6.28499 0.886524 -3.42252
upperback -0.702673 0.880976 -0.801092
thorax -4.29559 0.50703 1.0046
lowerneck -12.3218 0.466629 -2.72557
upperneck 2.98279 0.416278 9.51116
head 2.86884 0.577173 3.36819
rclavicle -4.63417e-014 -1.47101e-014
rhumerus 42.2626 59.6533 38.6129
rradius 132.25
rwrist -38.2243
rhand -28.4854 45.4655
rfingers 7.12502
rthumb -1.85472 15.4938
lclavicle -4.63417e-014 -1.47101e-014
lhumerus 6.61104 -66.2773 -1.49856
lradius 130.604
lwrist -0.566707
lhand 3.7112 29.0521
lfingers 7.12502
lthumb 29.1399 56.7917
rfemur -21.1089 2.62576 19.1975
rtibia 78.7447
rfoot -14.1814 -4.91169
rtoes -23.4756
lfemur -56.6066 -15.9637 -17.4305
ltibia 63.9421
lfoot -14.9136 -2.8902
ltoes -12.7356
1485
root 10.5647 14.4962 -4.32068 6.82256 -21.0795 1.32869
lowerback 6.18693 0.917257 -3.22503
upperback -0.724877 0.93903 -0.845024
thorax -4.2615 0.530457 0.843849
lowerneck -11.9912 0.472238 -2.81883
upperneck 3.2558 0.412836 9.58796
head 2.89783 0.576124 3.40592
rclavicle -4.02539e-015 -2.22639e-014
rhumerus 38.9619 60.1115 35.7579
rradius 132.505
rwrist -40.5433
rhand -28.3635 44.837
rfingers 7.12502
rthumb -1.73695 14.8643
lclavicle -4.02539e-015 -2.22639e-014
lhumerus 0.979136 -65.2431 2.44375
lradius 130.849
lwrist 1.2237
lhand 4.45025 29.3794
lfingers 7.12502
lthumb 29.8455 56.9945
rfemur -20.9437 2.39213 19.4739
rtibia 77.6915
rfoot -13.6827 -5.81554
rtoes -24.8849
lfemur -56.0477 -15.8887 -17.1276
ltibia 62.7324
lfoot -13.9525 -3.08561
ltoes -12.8725
